<svg xmlns="http://www.w3.org/2000/svg" viewBox="0 0 1080 1350" width="1080" height="1350" role="img" aria-label="Moonlit tropical cottage card"><defs><linearGradient id="s" x2="0" y2="1"><stop stop-color="#071438"/><stop offset=".62" stop-color="#243f9c"/><stop offset="1" stop-color="#7b5da8"/></linearGradient><linearGradient id="w" x2="0" y2="1"><stop stop-color="#274a9c"/><stop offset="1" stop-color="#111a4b"/></linearGradient><filter id="g"><feGaussianBlur stdDeviation="12"/></filter></defs><style>@keyframes sway{0%,100%{transform:rotate(-2deg)}50%{transform:rotate(3deg)}}@keyframes wave{0%,100%{transform:translateX(-15px);opacity:.3}50%{transform:translateX(18px);opacity:.65}}@keyframes glow{50%{opacity:.75}}.p{transform-box:fill-box;transform-origin:50% 100%;animation:sway 5.5s ease-in-out infinite}.r{animation:wave 4s ease-in-out infinite}.m{animation:glow 4s ease-in-out infinite}</style><rect width="1080" height="1350" fill="url(#s)"/><g fill="#fff8d4"><circle cx="130" cy="180" r="5"><animate attributeName="opacity" values=".2;1;.2" dur="2s" repeatCount="indefinite"/></circle><circle cx="330" cy="270" r="4"><animate attributeName="opacity" values="1;.2;1" dur="3.2s" repeatCount="indefinite"/></circle><circle cx="650" cy="150" r="6"><animate attributeName="opacity" values=".2;1;.2" dur="2.7s" repeatCount="indefinite"/></circle><circle cx="920" cy="360" r="5"><animate attributeName="opacity" values="1;.2;1" dur="2.2s" repeatCount="indefinite"/></circle></g><circle class="m" cx="820" cy="255" r="145" fill="#fff3bb" filter="url(#g)" opacity=".28"/><path d="M820 120a145 145 0 1 0 80 255a125 125 0 1 1-80-255Z" fill="#fff5c9"/><rect y="830" width="1080" height="520" fill="url(#w)"/><g class="r" fill="none" stroke="#d7c8ff" stroke-width="8" opacity=".45"><path d="M0 930Q180 880 360 930T720 930T1080 930"/><path d="M0 1040Q180 990 360 1040T720 1040T1080 1040"/><path d="M0 1160Q180 1110 360 1160T720 1160T1080 1160"/></g><g fill="#2a2335"><ellipse cx="280" cy="890" rx="200" ry="105"/><ellipse cx="520" cy="900" rx="220" ry="125"/><ellipse cx="730" cy="930" rx="160" ry="95"/></g><path d="M330 665H705V890H330Z" fill="#40384d"/><path d="M305 680L480 500L655 680Z" fill="#241e36"/><path d="M515 675L650 555L785 675Z" fill="#2a2138"/><g fill="#ffd77b"><rect x="400" y="700" width="70" height="95"/><rect x="565" y="700" width="78" height="125"/><rect x="660" y="715" width="48" height="62"/></g><g class="p" fill="#102622"><path d="M265 840Q300 520 390 220" stroke="#32272e" stroke-width="28" fill="none"/><path d="M390 240q-160-120-250-25q135 15 245 65q-100-180-205-145q110 70 225 130q-5-210 95-260q-25 150-70 265q165-145 255-60q-130 45-240 95q175-25 225 70q-135-10-250-60Z"/></g><g class="p" style="animation-delay:-2s" fill="#112622"><path d="M180 870Q185 680 230 455" stroke="#32272e" stroke-width="20" fill="none"/><path d="M230 470q-115-75-180 0q100 0 175 35q-60-125-135-100q70 45 135 90q0-145 75-180q-25 100-50 180q110-85 165-15q-90 25-160 55q110-10 140 55q-90-8-165-40Z"/></g><g class="r" fill="#ffd77b" opacity=".5"><ellipse cx="565" cy="990" rx="90" ry="18"/><ellipse cx="565" cy="1080" rx="135" ry="22"/><ellipse cx="565" cy="1180" rx="190" ry="25"/></g></svg>