<svg xmlns="http://www.w3.org/2000/svg" viewBox="0 0 96 96" role="img" aria-labelledby="title desc">
  <title id="title">Share Capsule logo</title>
  <desc id="desc">A rounded capsule containing a play symbol and sharing signal.</desc>
  <defs>
    <linearGradient id="bg" x1="12" y1="8" x2="84" y2="88" gradientUnits="userSpaceOnUse">
      <stop stop-color="#132f45"/>
      <stop offset="0.58" stop-color="#0f766e"/>
      <stop offset="1" stop-color="#a86f20"/>
    </linearGradient>
    <filter id="shadow" x="-20%" y="-20%" width="140%" height="140%">
      <feDropShadow dx="0" dy="5" stdDeviation="5" flood-color="#102535" flood-opacity="0.24"/>
    </filter>
  </defs>
  <rect x="5" y="5" width="86" height="86" rx="26" fill="url(#bg)" filter="url(#shadow)"/>
  <path d="M31 25h34c13.3 0 24 10.7 24 24S78.3 73 65 73H31C17.7 73 7 62.3 7 49s10.7-24 24-24Z" fill="none" stroke="#fff" stroke-width="5" stroke-linecap="round" opacity="0.96"/>
  <path d="M42 36.5v25L62 49 42 36.5Z" fill="#fff"/>
  <circle cx="70" cy="36" r="3.5" fill="#fff"/>
  <circle cx="76" cy="49" r="3.5" fill="#fff"/>
  <circle cx="70" cy="62" r="3.5" fill="#fff"/>
  <path d="m70 39.5 6 6M76 52.5l-6 6" fill="none" stroke="#fff" stroke-width="3" stroke-linecap="round"/>
</svg>
